<svg width="32" height="40" viewBox="0 0 32 40" fill="none" xmlns="http://www.w3.org/2000/svg">
<path d="M6.33261 12.2438C6.13876 14.2704 6.00273 17.857 7.22362 19.3836C7.22362 19.3836 6.64888 15.4437 11.8011 10.5005C13.8756 8.51048 14.3551 5.80386 13.6307 3.77389C13.2192 2.62391 12.4677 1.67392 11.8147 1.0106C11.4338 0.620608 11.7263 -0.0227155 12.2806 0.000617512C15.6338 0.147282 21.0683 1.0606 23.3774 6.74051C24.3909 9.23381 24.4657 11.8104 23.9828 14.4304C23.6767 16.1037 22.5885 19.8236 25.071 20.2803C26.8429 20.607 27.6999 19.227 28.0842 18.2337C28.244 17.8203 28.7983 17.717 29.0976 18.047C32.0903 21.3836 32.3454 25.3136 31.7264 28.6968C30.5293 35.2367 23.7719 39.9967 17.0587 39.9967C8.67236 39.9967 1.99658 35.2934 0.265574 26.7802C-0.431591 23.3436 -0.0779063 16.5437 5.32937 11.7438C5.73067 11.3838 6.38702 11.7038 6.33261 12.2438Z" fill="url(#paint0_radial_23_66)"/>
<path d="M20.1228 24.4736C17.0315 20.5736 18.4156 16.1237 19.174 14.3504C19.276 14.1171 19.004 13.8971 18.7897 14.0404C17.46 14.9271 14.736 17.0137 13.4675 19.9503C11.7501 23.9202 11.8725 25.8635 12.8893 28.2368C13.5015 29.6668 12.7907 29.9701 12.4336 30.0235C12.0867 30.0768 11.7671 29.8502 11.512 29.6135C10.7782 28.923 10.2554 28.0458 10.002 27.0802C9.94764 26.8735 9.67217 26.8169 9.54634 26.9869C8.59412 28.2768 8.101 30.3468 8.07719 31.8101C8.00238 36.3334 11.8147 40 16.4262 40C22.2381 40 26.4721 33.7001 23.1326 28.4335C22.1633 26.9002 21.2519 25.8969 20.1228 24.4736Z" fill="url(#paint1_radial_23_66)"/>
<defs>
<radialGradient id="paint0_radial_23_66" cx="0" cy="0" r="1" gradientUnits="userSpaceOnUse" gradientTransform="translate(15.3977 40.1003) rotate(-179.756) scale(24.0055 38.6062)">
<stop offset="0.314" stop-color="#FF9800"/>
<stop offset="0.662" stop-color="#FF6D00"/>
<stop offset="0.972" stop-color="#F44336"/>
</radialGradient>
<radialGradient id="paint1_radial_23_66" cx="0" cy="0" r="1" gradientUnits="userSpaceOnUse" gradientTransform="translate(16.7458 16.6865) rotate(90.5904) scale(24.6185 18.9025)">
<stop offset="0.214" stop-color="#FFF176"/>
<stop offset="0.328" stop-color="#FFF27D"/>
<stop offset="0.487" stop-color="#FFF48F"/>
<stop offset="0.672" stop-color="#FFF7AD"/>
<stop offset="0.793" stop-color="#FFF9C4"/>
<stop offset="0.822" stop-color="#FFF8BD" stop-opacity="0.804"/>
<stop offset="0.863" stop-color="#FFF6AB" stop-opacity="0.529"/>
<stop offset="0.91" stop-color="#FFF38D" stop-opacity="0.209"/>
<stop offset="0.941" stop-color="#FFF176" stop-opacity="0"/>
</radialGradient>
</defs>
</svg>
