<svg width="44" height="44" viewBox="0 0 44 44" fill="none" xmlns="http://www.w3.org/2000/svg">
<circle cx="22" cy="22" r="22" fill="#FDD22E"/>
<circle cx="22" cy="22" r="15.125" fill="#F29D0C"/>
<path d="M28.0948 22.71C28.0948 23.4567 27.9735 24.1403 27.7308 24.761C27.4881 25.377 27.1451 25.9067 26.7018 26.35C26.2631 26.7933 25.7335 27.1387 25.1128 27.386C24.4968 27.6287 23.8108 27.75 23.0548 27.75H19.2468V17.67H23.0548C23.8108 17.67 24.4968 17.7937 25.1128 18.041C25.7335 18.2837 26.2631 18.6267 26.7018 19.07C27.1451 19.5133 27.4881 20.0453 27.7308 20.666C27.9735 21.282 28.0948 21.9633 28.0948 22.71ZM26.4218 22.71C26.4218 22.1313 26.3425 21.611 26.1838 21.149C26.0298 20.687 25.8058 20.2973 25.5118 19.98C25.2225 19.6627 24.8701 19.42 24.4548 19.252C24.0395 19.0793 23.5728 18.993 23.0548 18.993H20.8918V26.427H23.0548C23.5728 26.427 24.0395 26.343 24.4548 26.175C24.8701 26.007 25.2225 25.7643 25.5118 25.447C25.8058 25.125 26.0298 24.7353 26.1838 24.278C26.3425 23.816 26.4218 23.2933 26.4218 22.71Z" fill="#FBEBA0"/>
</svg>
